0
SECTION
2
HEADER
9
$INSUNITS
70
4
9
$ACADVER
1
AC1014
9
$HANDSEED
5
FFFF
0
ENDSEC
0
SECTION
2
TABLES
0
TABLE
2
VPORT
5
8
100
AcDbSymbolTable
0
ENDTAB
0
TABLE
2
LTYPE
5
5
100
AcDbSymbolTable
0
LTYPE
5
14
100
AcDbSymbolTableRecord
100
AcDbLinetypeTableRecord
2
BYBLOCK
70
0
0
LTYPE
5
15
100
AcDbSymbolTableRecord
100
AcDbLinetypeTableRecord
2
BYLAYER
70
0
0
ENDTAB
0
TABLE
2
LAYER
5
2
100
AcDbSymbolTable
70
2
0
LAYER
5
50
100
AcDbSymbolTableRecord
100
AcDbLayerTableRecord
2
0
70
0
6
CONTINUOUS
0
ENDTAB
0
TABLE
2
STYLE
5
3
100
AcDbSymbolTable
70
1
0
STYLE
5
11
100
AcDbSymbolTableRecord
100
AcDbTextStyleTableRecord
2
STANDARD
70
0
0
ENDTAB
0
TABLE
2
VIEW
5
6
100
AcDbSymbolTable
70
0
0
ENDTAB
0
TABLE
2
UCS
5
7
100
AcDbSymbolTable
70
0
0
ENDTAB
0
TABLE
2
APPID
5
9
100
AcDbSymbolTable
70
2
0
APPID
5
12
100
AcDbSymbolTableRecord
100
AcDbRegAppTableRecord
2
ACAD
70
0
0
ENDTAB
0
TABLE
2
DIMSTYLE
5
A
100
AcDbSymbolTable
70
1
0
ENDTAB
0
TABLE
2
BLOCK_RECORD
5
1
100
AcDbSymbolTable
70
1
0
BLOCK_RECORD
5
1F
100
AcDbSymbolTableRecord
100
AcDbBlockTableRecord
2
*MODEL_SPACE
0
BLOCK_RECORD
5
1B
100
AcDbSymbolTableRecord
100
AcDbBlockTableRecord
2
*PAPER_SPACE
0
ENDTAB
0
ENDSEC
0
SECTION
2
BLOCKS
0
BLOCK
5
20
100
AcDbEntity
100
AcDbBlockBegin
2
*MODEL_SPACE
0
ENDBLK
5
21
100
AcDbEntity
100
AcDbBlockEnd
0
BLOCK
5
1C
100
AcDbEntity
100
AcDbBlockBegin
2
*PAPER_SPACE
0
ENDBLK
5
1D
100
AcDbEntity
100
AcDbBlockEnd
0
ENDSEC
0
SECTION
2
ENTITIES
0
LWPOLYLINE
5
100
100
AcDbEntity
8
0
100
AcDbPolyline
90
53
70
1
43
0.0
10
-20.549999999999997
20
-0.29864704077821042
42
-0.27591183565068039
10
-20.287049911517506
20
0.14158850918287702
10
-19.837950088482529
20
0.38341149081709575
42
0.27591183565067706
10
-19.575000000000042
20
0.82364704077818374
10
-19.575000000000003
20
20.931250000000006
42
0.41421356237309509
10
-20.075000000000003
20
21.431250000000006
10
-23.837499999999959
20
21.431250000000006
42
-0.41421356237309509
10
-24.337499999999959
20
21.931250000000002
10
-24.337500000000013
20
44.742816427081777
42
0.41421356237309509
10
-24.837500000000009
20
45.242816427081777
10
-33.362500000000075
20
45.242816427081806
42
-0.4142135623730977
10
-33.862500000000068
20
45.742816427081792
10
-33.862500000000011
20
71.187500000000028
42
0.41421356237309509
10
-34.362500000000011
20
71.687500000000028
10
-222.81250000000063
20
71.687500000000028
42
0.41421356237308982
10
-223.31250000000065
20
71.187500000000043
10
-223.31250000000037
20
21.931250000005171
42
0.41421356237282186
10
-222.81250000000082
20
21.431250000005171
10
-219.04999999999956
20
21.431250000001569
42
-0.41421356237281665
10
-218.55000000000001
20
20.931250000001572
10
-218.55000000000004
20
0.50000000000000022
42
-0.41421356237302515
10
-219.05000000000001
20
0
10
-231.86250000000001
20
0
10
-231.86250000000001
20
-2.9999999999999503
42
-0.41421356237309509
10
-232.86250000000007
20
-4.0000000000000036
10
-234.86249999999998
20
-3.9999999999999982
42
-0.41421356237309598
10
-235.86250000000001
20
-2.9999999999999805
10
-235.86250000000001
20
0
10
-251.41249999999999
20
3.0531133177191805e-15
42
-0.41421356237308893
10
-252.41250000000002
20
0.99999999999999645
10
-252.41250000000002
20
89.487500000000011
42
-0.41421356237310542
10
-251.41249999999999
20
90.487499999999997
10
-235.86250000000001
20
90.487499999999997
10
-235.86250000000001
20
93.487499999999969
42
-0.41421356237309509
10
-234.86249999999998
20
94.487500000000011
10
-232.86250000000007
20
94.487500000000011
42
-0.41421356237309509
10
-231.86250000000001
20
93.487499999999955
10
-231.86250000000001
20
90.487499999999997
10
-20.549999999999997
20
90.487499999999997
10
-20.549999999999997
20
93.487500000000011
42
-0.41421356237309509
10
-19.550000000000001
20
94.487500000000011
10
-17.54999999999999
20
94.487500000000011
42
-0.41421356237309509
10
-16.550000000000004
20
93.487500000000011
10
-16.550000000000004
20
90.487499999999997
10
-0.99999999999999989
20
90.487499999999997
42
-0.41421356237309803
10
0
20
89.487500000000011
10
-2.7755575615628914e-16
20
1.0000000000000002
42
-0.41421356237309553
10
-1.0000000000000009
20
0
10
-16.550000000000004
20
0
10
-16.550000000000001
20
-3.0000000000000004
42
-0.41421356237309509
10
-17.550000000000004
20
-4.0000000000000036
10
-19.550000000000008
20
-3.9999999999999969
42
-0.4142135623730937
10
-20.550000000000001
20
-3.0000000000000071
0
LWPOLYLINE
5
101
100
AcDbEntity
8
0
100
AcDbPolyline
90
8
70
1
43
0.0
10
-151.81299999999999
20
87.96250000000002
42
-0.41421356237307422
10
-151.31299999999999
20
87.46250000000002
10
-151.31299999999999
20
73.462500000000006
42
-0.41421356237310542
10
-151.81299999999999
20
72.96250000000002
10
-157.81299999999999
20
72.962499999999991
42
-0.41421356237307944
10
-158.31300000000002
20
73.462500000000006
10
-158.31300000000002
20
87.46250000000002
42
-0.4142135623730534
10
-157.81299999999999
20
87.96250000000002
0
LWPOLYLINE
5
102
100
AcDbEntity
8
0
100
AcDbPolyline
90
14
70
1
43
0.0
10
-110.83175
20
73.462500000000006
42
-0.41421356237310542
10
-111.33175000000001
20
72.96250000000002
10
-117.33175
20
72.962499999999991
42
-0.41421356237307944
10
-117.83175000000001
20
73.462500000000006
10
-117.83175
20
73.962500000000006
10
-127.43700000000003
20
73.962500000000006
10
-127.43700000000001
20
73.462500000000006
42
-0.41421356237310542
10
-127.93700000000001
20
72.96250000000002
10
-133.93700000000001
20
72.962499999999991
42
-0.4142135623731002
10
-134.43700000000004
20
73.462500000000006
10
-134.43700000000004
20
87.46250000000002
42
-0.41421356237307422
10
-133.93700000000001
20
87.96250000000002
10
-111.33175000000001
20
87.96250000000002
42
-0.41421356237307422
10
-110.83175
20
87.46250000000002
0
LWPOLYLINE
5
103
100
AcDbEntity
8
0
100
AcDbPolyline
90
8
70
1
43
0.0
10
-93.455749999999995
20
72.962500000000006
10
-87.455750000000009
20
72.96250000000002
42
0.41421356237310542
10
-86.955750000000023
20
73.462500000000006
10
-86.955749999999995
20
87.46250000000002
42
0.4142135623730534
10
-87.455750000000009
20
87.96250000000002
10
-93.455749999999995
20
87.96250000000002
42
0.41421356237307422
10
-93.955750000000009
20
87.46250000000002
10
-93.955750000000009
20
73.462500000000006
42
0.4142135623731002
0
LWPOLYLINE
5
104
100
AcDbEntity
8
0
100
AcDbPolyline
90
8
70
1
43
0.0
10
-18.906250000000004
20
39.837500000000006
42
-0.41421356237309637
10
-18.40625
20
40.337500000000006
10
-5.4062499999999991
20
40.337500000000006
42
-0.41421356237307227
10
-4.90625
20
39.837499999999999
10
-4.9062500000000018
20
26.837499999999999
42
-0.41421356237309509
10
-5.4062499999999991
20
26.337499999999999
10
-18.40625
20
26.337499999999999
42
-0.41421356237309509
10
-18.906250000000004
20
26.837499999999999
0
CIRCLE
5
105
100
AcDbEntity
8
0
100
AcDbCircle
10
-233.86250000000004
20
92.487500000000011
30
0
40
1.0999999999999943
210
0
220
-0
230
1
0
CIRCLE
5
106
100
AcDbEntity
8
0
100
AcDbCircle
10
-233.86250000000001
20
-2.0000000000000107
30
0
40
1.0999999999999943
210
0
220
-0
230
1
0
LWPOLYLINE
5
107
100
AcDbEntity
8
0
100
AcDbPolyline
90
8
70
1
43
0.0
10
-197.50000000000006
20
87.46250000000002
42
-0.41421356237308465
10
-197.00000000000003
20
87.96250000000002
10
-184.00000000000003
20
87.96250000000002
42
-0.41421356237309509
10
-183.5
20
87.46250000000002
10
-183.49999999999994
20
74.462500000000006
42
-0.4142135623731002
10
-184.00000000000003
20
73.962500000000006
10
-197.00000000000003
20
73.962500000000034
42
-0.41421356237315754
10
-197.50000000000003
20
74.462500000000006
0
LWPOLYLINE
5
108
100
AcDbEntity
8
0
100
AcDbPolyline
90
8
70
1
43
0.0
10
-109.39375000000001
20
87.46250000000002
42
-0.41421356237307422
10
-108.89375000000001
20
87.96250000000002
10
-95.893750000000011
20
87.96250000000002
42
-0.41421356237307422
10
-95.393749999999997
20
87.46250000000002
10
-95.393749999999997
20
74.462500000000006
42
-0.41421356237312629
10
-95.893750000000011
20
73.962500000000006
10
-108.89375000000001
20
73.962500000000006
42
-0.41421356237309509
10
-109.39375000000001
20
74.462500000000006
0
LWPOLYLINE
5
109
100
AcDbEntity
8
0
100
AcDbPolyline
90
8
70
1
43
0.0
10
-245.12500000000003
20
39.837500000000006
42
-0.41421356237314189
10
-244.62500000000003
20
40.337500000000006
10
-231.625
20
40.337499999999991
42
-0.41421356237312629
10
-231.125
20
39.837499999999999
10
-231.125
20
26.837499999999999
42
-0.41421356237300661
10
-231.625
20
26.337499999999999
10
-244.62500000000003
20
26.337499999999988
42
-0.41421356237313928
10
-245.12500000000003
20
26.837499999999999
0
LWPOLYLINE
5
110
100
AcDbEntity
8
0
100
AcDbPolyline
90
14
70
1
43
0.0
10
-167.94374999999999
20
73.462500000000006
10
-167.94374999999999
20
73.962500000000006
10
-164.95000000000002
20
73.962500000000006
42
0.4142135623731002
10
-164.44999999999996
20
74.462500000000006
10
-164.44999999999999
20
87.46250000000002
42
0.41421356237309509
10
-164.95000000000002
20
87.96250000000002
10
-177.94999999999999
20
87.96250000000002
42
0.41421356237309509
10
-178.44999999999999
20
87.46250000000002
10
-178.44999999999999
20
74.462500000000006
42
0.4142135623731471
10
-177.94999999999999
20
73.962500000000006
10
-174.94375000000002
20
73.962500000000006
10
-174.94375000000002
20
73.462500000000006
42
0.41421356237312629
10
-174.44375000000002
20
72.962500000000006
10
-168.44374999999999
20
72.96250000000002
42
0.4142135623730222
0
LWPOLYLINE
5
111
100
AcDbEntity
8
0
100
AcDbPolyline
90
8
70
1
43
0.0
10
-242.74375000000003
20
16.024999999999999
42
-0.41421356237301177
10
-242.24375000000003
20
16.525000000000002
10
-229.24375000000001
20
16.52500000000002
42
-0.41421356237314311
10
-228.74375000000001
20
16.024999999999999
10
-228.74374999999998
20
3.0250000000000021
42
-0.41421356237307683
10
-229.24375000000001
20
2.5249999999999999
10
-242.24375000000003
20
2.5249999999999768
42
-0.41421356237310447
10
-242.74375000000003
20
3.0249999999999999
0
LWPOLYLINE
5
112
100
AcDbEntity
8
0
100
AcDbPolyline
90
8
70
1
43
0.0
10
-136.375
20
87.96250000000002
42
-0.4142135623730534
10
-135.875
20
87.46250000000002
10
-135.87500000000003
20
74.462500000000006
42
-0.41421356237307944
10
-136.375
20
73.962500000000006
10
-149.375
20
73.962500000000006
42
-0.41421356237309509
10
-149.875
20
74.462500000000006
10
-149.875
20
87.46250000000002
42
-0.41421356237307422
10
-149.375
20
87.96250000000002
0
LWPOLYLINE
5
113
100
AcDbEntity
8
0
100
AcDbPolyline
90
8
70
1
43
0.0
10
-216.55000000000007
20
87.46250000000002
42
-0.41421356237308465
10
-216.05000000000004
20
87.96250000000002
10
-203.05000000000004
20
87.96250000000002
42
-0.41421356237309509
10
-202.55000000000001
20
87.46250000000002
10
-202.54999999999995
20
74.462500000000006
42
-0.4142135623731002
10
-203.05000000000004
20
73.962500000000006
10
-216.05000000000004
20
73.962500000000034
42
-0.41421356237315754
10
-216.55000000000004
20
74.462500000000006
0
LWPOLYLINE
5
114
100
AcDbEntity
8
0
100
AcDbPolyline
90
8
70
1
43
0.0
10
-59.387500000000024
20
87.46250000000002
42
-0.41421356237304818
10
-58.88750000000001
20
87.96250000000002
10
-45.887500000000003
20
87.962500000000006
42
-0.4142135623731002
10
-45.387500000000003
20
87.46250000000002
10
-45.387500000000003
20
74.462500000000006
42
-0.41421356237309509
10
-45.887500000000003
20
73.962500000000006
10
-58.88750000000001
20
73.962500000000006
42
-0.41421356237309509
10
-59.387500000000003
20
74.462500000000006
0
LWPOLYLINE
5
115
100
AcDbEntity
8
0
100
AcDbPolyline
90
8
70
1
43
0.0
10
-21.287500000000016
20
87.46250000000002
42
-0.41421356237305601
10
-20.787500000000001
20
87.96250000000002
10
-7.7875000000000005
20
87.96250000000002
42
-0.41421356237306839
10
-7.2874999999999996
20
87.46250000000002
10
-7.2874999999999979
20
74.462500000000006
42
-0.4142135623730977
10
-7.7875000000000005
20
73.962500000000006
10
-20.787500000000001
20
73.96250000000002
42
-0.41421356237310281
10
-21.287500000000001
20
74.462500000000006
0
LWPOLYLINE
5
116
100
AcDbEntity
8
0
100
AcDbPolyline
90
14
70
1
43
0.0
10
-67.943749999999994
20
73.462500000000006
10
-67.943749999999994
20
73.962500000000006
10
-64.9375
20
73.962500000000006
42
0.41421356237310542
10
-64.4375
20
74.462500000000006
10
-64.4375
20
87.46250000000002
42
0.41421356237307944
10
-64.9375
20
87.962500000000006
10
-77.9375
20
87.96250000000002
42
0.41421356237305862
10
-78.4375
20
87.46250000000002
10
-78.4375
20
74.462500000000006
42
0.4142135623731002
10
-77.9375
20
73.962500000000006
10
-74.943749999999994
20
73.962500000000006
10
-74.943749999999994
20
73.462500000000006
42
0.41421356237309509
10
-74.443749999999994
20
72.96250000000002
10
-68.443749999999994
20
72.96250000000002
42
0.41421356237310542
0
LWPOLYLINE
5
117
100
AcDbEntity
8
0
100
AcDbPolyline
90
8
70
1
43
0.0
10
-16.525000000000002
20
16.024999999999999
42
-0.41421356237309243
10
-16.024999999999999
20
16.525000000000002
10
-3.0250000000000021
20
16.525000000000002
42
-0.41421356237309637
10
-2.5249999999999999
20
16.024999999999999
10
-2.5249999999999999
20
3.0250000000000021
42
-0.4142135623730957
10
-3.0249999999999999
20
2.5249999999999999
10
-16.024999999999999
20
2.524999999999999
42
-0.41421356237309276
10
-16.525000000000002
20
3.0249999999999999
0
LWPOLYLINE
5
118
100
AcDbEntity
8
0
100
AcDbPolyline
90
8
70
1
43
0.0
10
-242.74374999999998
20
63.650000000000006
42
-0.41421356237303786
10
-242.24375000000003
20
64.150000000000006
10
-229.24375000000003
20
64.150000000000034
42
-0.4142135623731471
10
-228.74375000000001
20
63.650000000000006
10
-228.74374999999998
20
50.650000000000006
42
-0.41421356237307422
10
-229.24375000000001
20
50.150000000000006
10
-242.24375000000003
20
50.150000000000048
42
-0.4142135623731471
10
-242.74375000000003
20
50.650000000000006
0
CIRCLE
5
119
100
AcDbEntity
8
0
100
AcDbCircle
10
-18.550000000000001
20
92.487499999999997
30
0
40
1.100000000000001
210
0
220
-0
230
1
0
LWPOLYLINE
5
120
100
AcDbEntity
8
0
100
AcDbPolyline
90
8
70
1
43
0.0
10
-235.60000000000002
20
87.46250000000002
42
-0.41421356237309509
10
-235.10000000000002
20
87.96250000000002
10
-222.10000000000002
20
87.962500000000006
42
-0.41421356237304296
10
-221.59999999999999
20
87.46250000000002
10
-221.60000000000002
20
74.462500000000006
42
-0.41421356237303786
10
-222.10000000000002
20
73.962500000000006
10
-235.09999999999997
20
73.962499999999977
42
-0.4142135623731471
10
-235.60000000000002
20
74.462500000000006
0
LWPOLYLINE
5
121
100
AcDbEntity
8
0
100
AcDbPolyline
90
8
70
1
43
0.0
10
-23.66875000000001
20
63.650000000000006
42
-0.41421356237310281
10
-23.168749999999999
20
64.150000000000006
10
-10.168749999999998
20
64.149999999999991
42
-0.4142135623730977
10
-9.6687499999999993
20
63.650000000000006
10
-9.6687500000000011
20
50.650000000000006
42
-0.41421356237309509
10
-10.168749999999999
20
50.150000000000006
10
-23.168749999999999
20
50.150000000000006
42
-0.41421356237309509
10
-23.668749999999999
20
50.650000000000006
0
CIRCLE
5
122
100
AcDbEntity
8
0
100
AcDbCircle
10
-18.550000000000001
20
-2.0000000000000013
30
0
40
1.100000000000001
210
0
220
-0
230
1
0
LWPOLYLINE
5
123
100
AcDbEntity
8
0
100
AcDbPolyline
90
8
70
1
43
0.0
10
-40.337500000000034
20
87.462500000000034
42
-0.41421356237303786
10
-39.837499999999999
20
87.96250000000002
10
-26.837499999999999
20
87.962500000000006
42
-0.41421356237310281
10
-26.337499999999999
20
87.46250000000002
10
-26.337499999999995
20
74.462500000000006
42
-0.4142135623730977
10
-26.837499999999999
20
73.962500000000006
10
-39.837499999999999
20
73.962500000000006
42
-0.41421356237309243
10
-40.337500000000006
20
74.462500000000006
0
ENDSEC
0
SECTION
2
OBJECTS
0
DICTIONARY
5
C
100
AcDbDictionary
3
ACAD_GROUP
350
D
3
ACAD_MLINESTYLE
350
17
0
DICTIONARY
5
D
100
AcDbDictionary
0
DICTIONARY
5
1A
330
C
100
AcDbDictionary
0
DICTIONARY
5
17
100
AcDbDictionary
0
ENDSEC
0
EOF
