0
SECTION
2
HEADER
9
$INSUNITS
70
4
9
$ACADVER
1
AC1014
9
$HANDSEED
5
FFFF
0
ENDSEC
0
SECTION
2
TABLES
0
TABLE
2
VPORT
5
8
100
AcDbSymbolTable
0
ENDTAB
0
TABLE
2
LTYPE
5
5
100
AcDbSymbolTable
0
LTYPE
5
14
100
AcDbSymbolTableRecord
100
AcDbLinetypeTableRecord
2
BYBLOCK
70
0
0
LTYPE
5
15
100
AcDbSymbolTableRecord
100
AcDbLinetypeTableRecord
2
BYLAYER
70
0
0
ENDTAB
0
TABLE
2
LAYER
5
2
100
AcDbSymbolTable
70
2
0
LAYER
5
50
100
AcDbSymbolTableRecord
100
AcDbLayerTableRecord
2
0
70
0
6
CONTINUOUS
0
ENDTAB
0
TABLE
2
STYLE
5
3
100
AcDbSymbolTable
70
1
0
STYLE
5
11
100
AcDbSymbolTableRecord
100
AcDbTextStyleTableRecord
2
STANDARD
70
0
0
ENDTAB
0
TABLE
2
VIEW
5
6
100
AcDbSymbolTable
70
0
0
ENDTAB
0
TABLE
2
UCS
5
7
100
AcDbSymbolTable
70
0
0
ENDTAB
0
TABLE
2
APPID
5
9
100
AcDbSymbolTable
70
2
0
APPID
5
12
100
AcDbSymbolTableRecord
100
AcDbRegAppTableRecord
2
ACAD
70
0
0
ENDTAB
0
TABLE
2
DIMSTYLE
5
A
100
AcDbSymbolTable
70
1
0
ENDTAB
0
TABLE
2
BLOCK_RECORD
5
1
100
AcDbSymbolTable
70
1
0
BLOCK_RECORD
5
1F
100
AcDbSymbolTableRecord
100
AcDbBlockTableRecord
2
*MODEL_SPACE
0
BLOCK_RECORD
5
1B
100
AcDbSymbolTableRecord
100
AcDbBlockTableRecord
2
*PAPER_SPACE
0
ENDTAB
0
ENDSEC
0
SECTION
2
BLOCKS
0
BLOCK
5
20
100
AcDbEntity
100
AcDbBlockBegin
2
*MODEL_SPACE
0
ENDBLK
5
21
100
AcDbEntity
100
AcDbBlockEnd
0
BLOCK
5
1C
100
AcDbEntity
100
AcDbBlockBegin
2
*PAPER_SPACE
0
ENDBLK
5
1D
100
AcDbEntity
100
AcDbBlockEnd
0
ENDSEC
0
SECTION
2
ENTITIES
0
LWPOLYLINE
5
100
100
AcDbEntity
8
0
100
AcDbPolyline
90
8
70
1
43
0.0
10
-149.375
20
73.962500000000006
10
-136.375
20
73.962500000000006
42
0.41421356237307944
10
-135.87500000000003
20
74.462500000000006
10
-135.875
20
87.46250000000002
42
0.4142135623730534
10
-136.375
20
87.96250000000002
10
-149.375
20
87.96250000000002
42
0.41421356237307422
10
-149.875
20
87.46250000000002
10
-149.875
20
74.462500000000006
42
0.4142135623731002
0
LWPOLYLINE
5
101
100
AcDbEntity
8
0
100
AcDbPolyline
90
14
70
1
43
0.0
10
-64.9375
20
87.962500000000006
10
-77.9375
20
87.96250000000002
42
0.41421356237302742
10
-78.437500000000014
20
87.462500000000034
10
-78.4375
20
74.462500000000006
42
0.41421356237310542
10
-77.9375
20
73.962500000000006
10
-74.943749999999994
20
73.962500000000006
10
-74.943749999999994
20
73.462500000000006
42
0.41421356237309509
10
-74.443749999999994
20
72.96250000000002
10
-68.443749999999994
20
72.96250000000002
42
0.41421356237310542
10
-67.943749999999994
20
73.462500000000006
10
-67.943749999999994
20
73.962500000000006
10
-64.9375
20
73.962500000000006
42
0.41421356237310542
10
-64.4375
20
74.462500000000006
10
-64.4375
20
87.46250000000002
42
0.41421356237307944
0
LWPOLYLINE
5
102
100
AcDbEntity
8
0
100
AcDbPolyline
90
14
70
1
43
0.0
10
-134.43700000000004
20
87.46250000000002
10
-134.43700000000004
20
73.462500000000006
42
0.41421356237309509
10
-133.93700000000001
20
72.962499999999991
10
-127.93700000000001
20
72.96250000000002
42
0.41421356237312629
10
-127.43700000000001
20
73.462500000000006
10
-127.43700000000003
20
73.962500000000006
10
-117.83175
20
73.962500000000006
10
-117.83175000000001
20
73.462500000000006
42
0.41421356237308982
10
-117.33175000000003
20
72.962499999999991
10
-111.33175000000001
20
72.96250000000002
42
0.41421356237312629
10
-110.83175
20
73.462500000000006
10
-110.83175
20
87.46250000000002
42
0.41421356237307422
10
-111.33175000000001
20
87.96250000000002
10
-133.93700000000001
20
87.96250000000002
42
0.41421356237307422
0
LWPOLYLINE
5
103
100
AcDbEntity
8
0
100
AcDbPolyline
90
8
70
1
43
0.0
10
-157.81300000000002
20
72.962499999999991
10
-151.81299999999999
20
72.96250000000002
42
0.41421356237312629
10
-151.31299999999999
20
73.462500000000006
10
-151.31299999999999
20
87.46250000000002
42
0.41421356237307422
10
-151.81299999999999
20
87.96250000000002
10
-157.81299999999999
20
87.96250000000002
42
0.4142135623730534
10
-158.31300000000002
20
87.46250000000002
10
-158.31300000000002
20
73.462500000000006
42
0.41421356237308982
0
LWPOLYLINE
5
104
100
AcDbEntity
8
0
100
AcDbPolyline
90
8
70
1
43
0.0
10
-93.455749999999995
20
72.962499999999991
10
-87.455750000000009
20
72.96250000000002
42
0.41421356237307944
10
-86.955750000000023
20
73.462500000000006
10
-86.955749999999995
20
87.46250000000002
42
0.4142135623730534
10
-87.455750000000009
20
87.96250000000002
10
-93.455749999999995
20
87.96250000000002
42
0.41421356237307422
10
-93.955750000000009
20
87.46250000000002
10
-93.955750000000009
20
73.462500000000006
42
0.41421356237309509
0
LWPOLYLINE
5
105
100
AcDbEntity
8
0
100
AcDbPolyline
90
8
70
1
43
0.0
10
-95.393749999999997
20
74.462500000000006
10
-95.393749999999997
20
87.46250000000002
42
0.41421356237307422
10
-95.893750000000011
20
87.96250000000002
10
-108.89375000000001
20
87.96250000000002
42
0.41421356237307422
10
-109.39375000000001
20
87.46250000000002
10
-109.39375000000001
20
74.462500000000006
42
0.4142135623731002
10
-108.89375000000001
20
73.962500000000006
10
-95.893750000000011
20
73.962500000000006
42
0.41421356237313667
0
LWPOLYLINE
5
106
100
AcDbEntity
8
0
100
AcDbPolyline
90
14
70
1
43
0.0
10
-164.95000000000002
20
87.96250000000002
10
-177.94999999999999
20
87.96250000000002
42
0.41421356237309509
10
-178.44999999999999
20
87.46250000000002
10
-178.44999999999999
20
74.462500000000006
42
0.41421356237308982
10
-177.95000000000002
20
73.962499999999977
10
-174.94375000000002
20
73.962500000000006
10
-174.94375000000002
20
73.462500000000006
42
0.41421356237315754
10
-174.44375000000002
20
72.96250000000002
10
-168.44374999999999
20
72.96250000000002
42
0.41421356237303786
10
-167.94375000000002
20
73.462500000000006
10
-167.94374999999999
20
73.962500000000006
10
-164.95000000000002
20
73.962500000000006
42
0.41421356237304818
10
-164.44999999999993
20
74.462500000000006
10
-164.44999999999999
20
87.46250000000002
42
0.41421356237309509
0
LWPOLYLINE
5
107
100
AcDbEntity
8
0
100
AcDbPolyline
90
8
70
1
43
0.0
10
-40.625
20
3.0249999999999999
42
-0.41421356237309409
10
-41.125
20
2.5249999999999999
10
-54.125000000000007
20
2.525000000000003
42
-0.41421356237309437
10
-54.625
20
3.0249999999999999
10
-54.625
20
16.024999999999999
42
-0.4142135623730937
10
-54.125000000000007
20
16.525000000000002
10
-41.125
20
16.524999999999999
42
-0.41421356237309509
10
-40.625
20
16.024999999999999
0
LWPOLYLINE
5
108
100
AcDbEntity
8
0
100
AcDbPolyline
90
8
70
1
43
0.0
10
-2.5249999999999999
20
3.0249999999999999
42
-0.41421356237309437
10
-3.0249999999999999
20
2.5249999999999999
10
-16.024999999999999
20
2.5249999999999986
42
-0.41421356237309309
10
-16.525000000000002
20
3.0249999999999999
10
-16.525000000000002
20
16.024999999999999
42
-0.41421356237309243
10
-16.024999999999999
20
16.525000000000002
10
-3.0250000000000021
20
16.525000000000002
42
-0.41421356237309598
10
-2.5249999999999999
20
16.024999999999999
0
CIRCLE
5
109
100
AcDbEntity
8
0
100
AcDbCircle
10
-18.550000000000001
20
-2.0000000000000013
30
0
40
1.100000000000001
210
0
220
-0
230
1
0
LWPOLYLINE
5
110
100
AcDbEntity
8
0
100
AcDbPolyline
90
8
70
1
43
0.0
10
-131.11250000000001
20
50.650000000000006
42
-0.41421356237308982
10
-131.61250000000001
20
50.150000000000006
10
-144.61250000000001
20
50.149999999999999
42
-0.41421356237307422
10
-145.11250000000001
20
50.650000000000006
10
-145.11250000000001
20
63.650000000000006
42
-0.41421356237310542
10
-144.61250000000001
20
64.150000000000006
10
-131.61250000000001
20
64.15000000000002
42
-0.4142135623731002
10
-131.11250000000001
20
63.650000000000006
0
CIRCLE
5
111
100
AcDbEntity
8
0
100
AcDbCircle
10
-233.86250000000004
20
92.487500000000011
30
0
40
1.0999999999999943
210
0
220
-0
230
1
0
LWPOLYLINE
5
112
100
AcDbEntity
8
0
100
AcDbPolyline
90
8
70
1
43
0.0
10
-21.575000000000003
20
3.0249999999999999
42
-0.41421356237309537
10
-22.074999999999999
20
2.5249999999999999
10
-35.075000000000003
20
2.5250000000000004
42
-0.4142135623730957
10
-35.575000000000003
20
3.0249999999999999
10
-35.575000000000003
20
16.024999999999999
42
-0.41421356237309509
10
-35.075000000000003
20
16.525000000000002
10
-22.075000000000003
20
16.525000000000002
42
-0.41421356237309637
10
-21.575000000000003
20
16.024999999999999
0
CIRCLE
5
113
100
AcDbEntity
8
0
100
AcDbCircle
10
-233.86250000000001
20
-2.0000000000000107
30
0
40
1.0999999999999943
210
0
220
-0
230
1
0
LWPOLYLINE
5
114
100
AcDbEntity
8
0
100
AcDbPolyline
90
8
70
1
43
0.0
10
-4.9062500000000036
20
26.837499999999999
42
-0.41421356237309437
10
-5.4062499999999991
20
26.337499999999999
10
-18.40625
20
26.337499999999999
42
-0.41421356237309509
10
-18.906250000000004
20
26.837499999999999
10
-18.906250000000004
20
39.837500000000006
42
-0.4142135623730977
10
-18.40625
20
40.337500000000006
10
-5.4062499999999991
20
40.337500000000006
42
-0.41421356237307883
10
-4.90625
20
39.837499999999999
0
LWPOLYLINE
5
115
100
AcDbEntity
8
0
100
AcDbPolyline
90
8
70
1
43
0.0
10
-169.21250000000001
20
50.650000000000006
10
-169.21250000000001
20
63.650000000000006
42
0.41421356237313667
10
-169.71250000000001
20
64.150000000000006
10
-182.71250000000003
20
64.150000000000006
42
0.4142135623730222
10
-183.21250000000003
20
63.650000000000006
10
-183.21250000000003
20
50.650000000000006
42
0.41421356237312101
10
-182.71250000000003
20
50.150000000000006
10
-169.71250000000001
20
50.150000000000006
42
0.41421356237307422
0
LWPOLYLINE
5
116
100
AcDbEntity
8
0
100
AcDbPolyline
90
8
70
1
43
0.0
10
-68.412499999999994
20
50.150000000000006
42
-0.41421356237309509
10
-68.912499999999994
20
50.650000000000006
10
-68.912499999999994
20
63.650000000000006
42
-0.41421356237309509
10
-68.412499999999994
20
64.150000000000006
10
-55.412500000000009
20
64.150000000000006
42
-0.41421356237309509
10
-54.912500000000009
20
63.650000000000006
10
-54.912500000000009
20
50.650000000000006
42
-0.41421356237309509
10
-55.412500000000009
20
50.150000000000006
0
LWPOLYLINE
5
117
100
AcDbEntity
8
0
100
AcDbPolyline
90
8
70
1
43
0.0
10
-92.224999999999994
20
2.5249999999999941
42
-0.41421356237309437
10
-92.725000000000009
20
3.0249999999999999
10
-92.725000000000009
20
16.024999999999999
42
-0.41421356237310675
10
-92.224999999999994
20
16.525000000000002
10
-79.224999999999994
20
16.525000000000002
42
-0.4142135623730977
10
-78.724999999999994
20
16.024999999999999
10
-78.724999999999994
20
3.0249999999999999
42
-0.4142135623730967
10
-79.224999999999994
20
2.5249999999999999
0
LWPOLYLINE
5
118
100
AcDbEntity
8
0
100
AcDbPolyline
90
8
70
1
43
0.0
10
-207.31250000000003
20
50.650000000000006
42
-0.4142135623730222
10
-207.8125
20
50.150000000000006
10
-220.8125
20
50.150000000000006
42
-0.41421356237313145
10
-221.3125
20
50.650000000000006
10
-221.31250000000006
20
63.650000000000006
42
-0.41421356237307422
10
-220.8125
20
64.150000000000006
10
-207.8125
20
64.149999999999991
42
-0.41421356237312629
10
-207.3125
20
63.650000000000006
0
LWPOLYLINE
5
119
100
AcDbEntity
8
0
100
AcDbPolyline
90
8
70
1
43
0.0
10
-188.26249999999999
20
26.837499999999999
42
-0.41421356237304557
10
-188.76249999999999
20
26.337499999999999
10
-201.76249999999999
20
26.337499999999999
42
-0.41421356237313145
10
-202.26249999999999
20
26.837499999999999
10
-202.26249999999999
20
39.837500000000006
42
-0.414213562373134
10
-201.76249999999999
20
40.337500000000006
10
-188.76249999999999
20
40.337500000000013
42
-0.4142135623731002
10
-188.26249999999999
20
39.837499999999999
0
LWPOLYLINE
5
120
100
AcDbEntity
8
0
100
AcDbPolyline
90
8
70
1
43
0.0
10
-26.337499999999995
20
74.462500000000006
42
-0.4142135623730977
10
-26.837499999999999
20
73.962500000000006
10
-39.837499999999999
20
73.962500000000006
42
-0.41421356237309243
10
-40.337500000000006
20
74.462500000000006
10
-40.33750000000002
20
87.46250000000002
42
-0.41421356237306117
10
-39.837499999999999
20
87.96250000000002
10
-26.837499999999999
20
87.962500000000006
42
-0.4142135623731002
10
-26.337499999999999
20
87.46250000000002
0
LWPOLYLINE
5
121
100
AcDbEntity
8
0
100
AcDbPolyline
90
8
70
1
43
0.0
10
-202.54999999999998
20
3.0249999999999999
42
-0.41421356237307744
10
-203.05000000000004
20
2.5249999999999999
10
-216.05000000000004
20
2.5249999999999817
42
-0.41421356237310153
10
-216.55000000000004
20
3.0249999999999999
10
-216.55000000000004
20
16.024999999999999
42
-0.41421356237304691
10
-216.05000000000004
20
16.525000000000002
10
-203.05000000000004
20
16.525000000000002
42
-0.414213562373134
10
-202.55000000000001
20
16.024999999999999
0
LWPOLYLINE
5
122
100
AcDbEntity
8
0
100
AcDbPolyline
90
8
70
1
43
0.0
10
-183.49999999999997
20
74.462500000000006
42
-0.41421356237307422
10
-184.00000000000003
20
73.962500000000006
10
-197.00000000000003
20
73.96250000000002
42
-0.41421356237312629
10
-197.50000000000003
20
74.462500000000006
10
-197.50000000000006
20
87.46250000000002
42
-0.41421356237308465
10
-197.00000000000003
20
87.96250000000002
10
-184.00000000000003
20
87.96250000000002
42
-0.41421356237309509
10
-183.5
20
87.46250000000002
0
LWPOLYLINE
5
123
100
AcDbEntity
8
0
100
AcDbPolyline
90
8
70
1
43
0.0
10
-59.675000000000004
20
3.0249999999999999
42
-0.4142135623730967
10
-60.174999999999997
20
2.5249999999999999
10
-73.174999999999997
20
2.525000000000003
42
-0.41421356237309437
10
-73.674999999999997
20
3.0249999999999999
10
-73.674999999999997
20
16.024999999999999
42
-0.4142135623730937
10
-73.174999999999997
20
16.525000000000002
10
-60.174999999999997
20
16.525000000000002
42
-0.4142135623730977
10
-59.675000000000004
20
16.024999999999999
0
LWPOLYLINE
5
124
100
AcDbEntity
8
0
100
AcDbPolyline
90
8
70
1
43
0.0
10
-183.49999999999997
20
3.0249999999999999
42
-0.41421356237307744
10
-184.00000000000003
20
2.5249999999999999
10
-197.00000000000003
20
2.5249999999999817
42
-0.41421356237310153
10
-197.50000000000003
20
3.0249999999999999
10
-197.50000000000003
20
16.024999999999999
42
-0.41421356237304691
10
-197.00000000000003
20
16.525000000000002
10
-184.00000000000003
20
16.525000000000002
42
-0.414213562373134
10
-183.5
20
16.024999999999999
0
LWPOLYLINE
5
125
100
AcDbEntity
8
0
100
AcDbPolyline
90
8
70
1
43
0.0
10
-45.387500000000003
20
26.837499999999999
42
-0.41421356237309509
10
-45.887500000000003
20
26.337499999999999
10
-58.88750000000001
20
26.337499999999999
42
-0.41421356237309509
10
-59.387500000000003
20
26.837499999999999
10
-59.387500000000003
20
39.837500000000006
42
-0.41421356237310281
10
-58.88750000000001
20
40.337500000000006
10
-45.88750000000001
20
40.337499999999991
42
-0.41421356237311319
10
-45.387500000000003
20
39.837499999999999
0
LWPOLYLINE
5
126
100
AcDbEntity
8
0
100
AcDbPolyline
90
8
70
1
43
0.0
10
-202.54999999999998
20
74.462500000000006
42
-0.41421356237307422
10
-203.05000000000004
20
73.962500000000006
10
-216.05000000000004
20
73.96250000000002
42
-0.41421356237312629
10
-216.55000000000004
20
74.462500000000006
10
-216.55000000000007
20
87.46250000000002
42
-0.41421356237308465
10
-216.05000000000004
20
87.96250000000002
10
-203.05000000000004
20
87.96250000000002
42
-0.41421356237309509
10
-202.55000000000001
20
87.46250000000002
0
LWPOLYLINE
5
127
100
AcDbEntity
8
0
100
AcDbPolyline
90
8
70
1
43
0.0
10
-231.125
20
26.837499999999999
42
-0.41421356237304557
10
-231.625
20
26.337499999999999
10
-244.62500000000003
20
26.337499999999999
42
-0.41421356237313145
10
-245.12500000000003
20
26.837499999999999
10
-245.12500000000003
20
39.837500000000006
42
-0.414213562373134
10
-244.62500000000003
20
40.337500000000006
10
-231.625
20
40.337500000000013
42
-0.4142135623731002
10
-231.125
20
39.837499999999999
0
LWPOLYLINE
5
128
100
AcDbEntity
8
0
100
AcDbPolyline
90
8
70
1
43
0.0
10
-87.46250000000002
20
50.149999999999999
42
-0.41421356237307422
10
-87.96250000000002
20
50.650000000000006
10
-87.962500000000006
20
63.650000000000006
42
-0.41421356237310542
10
-87.46250000000002
20
64.150000000000006
10
-74.462500000000006
20
64.150000000000006
42
-0.41421356237310542
10
-73.962500000000006
20
63.650000000000006
10
-73.962500000000006
20
50.650000000000006
42
-0.41421356237309509
10
-74.462500000000006
20
50.150000000000006
0
LWPOLYLINE
5
129
100
AcDbEntity
8
0
100
AcDbPolyline
90
8
70
1
43
0.0
10
-145.40000000000001
20
3.0249999999999999
42
-0.41421356237307422
10
-145.90000000000001
20
2.5249999999999999
10
-158.90000000000001
20
2.5249999999999941
42
-0.41421356237309437
10
-159.40000000000001
20
3.0249999999999999
10
-159.40000000000001
20
16.024999999999999
42
-0.41421356237310675
10
-158.90000000000001
20
16.525000000000002
10
-145.90000000000001
20
16.525000000000009
42
-0.41421356237307549
10
-145.40000000000001
20
16.024999999999999
0
LWPOLYLINE
5
130
100
AcDbEntity
8
0
100
AcDbPolyline
90
8
70
1
43
0.0
10
-45.387500000000003
20
74.462500000000006
42
-0.41421356237309509
10
-45.887500000000003
20
73.962500000000006
10
-58.88750000000001
20
73.962500000000006
42
-0.41421356237309509
10
-59.387500000000003
20
74.462500000000006
10
-59.387500000000017
20
87.46250000000002
42
-0.41421356237307422
10
-58.88750000000001
20
87.96250000000002
10
-45.887500000000003
20
87.962500000000006
42
-0.4142135623731002
10
-45.387500000000003
20
87.46250000000002
0
LWPOLYLINE
5
131
100
AcDbEntity
8
0
100
AcDbPolyline
90
8
70
1
43
0.0
10
-150.16249999999999
20
50.650000000000006
42
-0.41421356237308982
10
-150.66249999999999
20
50.150000000000006
10
-163.66250000000002
20
50.15000000000002
42
-0.41421356237312101
10
-164.16250000000002
20
50.650000000000006
10
-164.16249999999997
20
63.650000000000006
42
-0.4142135623730222
10
-163.66250000000002
20
64.150000000000006
10
-150.66249999999999
20
64.15000000000002
42
-0.4142135623731002
10
-150.16249999999999
20
63.650000000000006
0
LWPOLYLINE
5
132
100
AcDbEntity
8
0
100
AcDbPolyline
90
8
70
1
43
0.0
10
-150.16249999999999
20
26.837499999999999
42
-0.41421356237310542
10
-150.66249999999999
20
26.337499999999999
10
-163.66250000000002
20
26.337499999999984
42
-0.4142135623731002
10
-164.16250000000002
20
26.837499999999999
10
-164.16250000000002
20
39.837500000000006
42
-0.41421356237312362
10
-163.66250000000002
20
40.337500000000006
10
-150.66249999999999
20
40.337500000000006
42
-0.41421356237309243
10
-150.16249999999999
20
39.837499999999999
0
LWPOLYLINE
5
133
100
AcDbEntity
8
0
100
AcDbPolyline
90
8
70
1
43
0.0
10
-88.25
20
26.837499999999999
42
-0.41421356237310542
10
-88.75
20
26.337499999999999
10
-101.75
20
26.337499999999995
42
-0.41421356237309243
10
-102.25000000000001
20
26.837499999999999
10
-102.25000000000001
20
39.837500000000006
42
-0.41421356237310542
10
-101.75
20
40.337500000000006
10
-88.75
20
40.337500000000006
42
-0.41421356237309243
10
-88.25
20
39.837499999999999
0
LWPOLYLINE
5
134
100
AcDbEntity
8
0
100
AcDbPolyline
90
8
70
1
43
0.0
10
-169.21249999999998
20
26.837499999999999
42
-0.41421356237307683
10
-169.71250000000001
20
26.337499999999999
10
-182.71250000000003
20
26.337499999999984
42
-0.4142135623731002
10
-183.21250000000003
20
26.837499999999999
10
-183.21250000000003
20
39.837500000000006
42
-0.41421356237312362
10
-182.71250000000003
20
40.337500000000006
10
-169.71250000000001
20
40.337500000000034
42
-0.41421356237311063
10
-169.21250000000001
20
39.837499999999999
0
LWPOLYLINE
5
135
100
AcDbEntity
8
0
100
AcDbPolyline
90
8
70
1
43
0.0
10
-49.362500000000004
20
50.150000000000006
42
-0.41421356237309509
10
-49.862499999999997
20
50.650000000000006
10
-49.862499999999997
20
63.650000000000006
42
-0.41421356237309509
10
-49.362500000000004
20
64.150000000000006
10
-36.362499999999997
20
64.149999999999991
42
-0.4142135623730977
10
-35.862500000000004
20
63.650000000000006
10
-35.862500000000004
20
50.650000000000006
42
-0.41421356237309509
10
-36.362499999999997
20
50.150000000000006
0
LWPOLYLINE
5
136
100
AcDbEntity
8
0
100
AcDbPolyline
90
8
70
1
43
0.0
10
-188.26249999999999
20
50.650000000000006
10
-188.26249999999999
20
63.650000000000006
42
0.41421356237312629
10
-188.76249999999999
20
64.150000000000006
10
-201.76249999999999
20
64.150000000000006
42
0.41421356237307422
10
-202.26249999999999
20
63.650000000000006
10
-202.26249999999999
20
50.650000000000006
42
0.41421356237313145
10
-201.76249999999999
20
50.150000000000006
10
-188.76249999999999
20
50.150000000000006
42
0.4142135623730222
0
LWPOLYLINE
5
137
100
AcDbEntity
8
0
100
AcDbPolyline
90
8
70
1
43
0.0
10
-26.337499999999999
20
26.837499999999999
42
-0.41421356237309509
10
-26.837499999999999
20
26.337499999999999
10
-39.837499999999999
20
26.337499999999995
42
-0.41421356237310542
10
-40.337500000000006
20
26.837499999999999
10
-40.337500000000006
20
39.837500000000006
42
-0.41421356237310802
10
-39.837499999999999
20
40.337500000000006
10
-26.837499999999999
20
40.337499999999991
42
-0.41421356237311319
10
-26.337499999999999
20
39.837499999999999
0
LWPOLYLINE
5
138
100
AcDbEntity
8
0
100
AcDbPolyline
90
8
70
1
43
0.0
10
-9.6687500000000011
20
50.650000000000006
42
-0.41421356237309509
10
-10.168749999999999
20
50.150000000000006
10
-23.168749999999999
20
50.150000000000006
42
-0.41421356237309509
10
-23.668749999999999
20
50.650000000000006
10
-23.668750000000003
20
63.650000000000006
42
-0.4142135623730977
10
-23.168749999999999
20
64.150000000000006
10
-10.168749999999998
20
64.150000000000006
42
-0.41421356237309509
10
-9.6687499999999993
20
63.650000000000006
0
LWPOLYLINE
5
139
100
AcDbEntity
8
0
100
AcDbPolyline
90
8
70
1
43
0.0
10
-164.44999999999996
20
3.0249999999999999
42
-0.41421356237307744
10
-164.95000000000002
20
2.5249999999999999
10
-177.94999999999999
20
2.5249999999999995
42
-0.41421356237313273
10
-178.44999999999999
20
3.0249999999999999
10
-178.45000000000002
20
16.024999999999999
42
-0.4142135623730781
10
-177.94999999999999
20
16.525000000000002
10
-164.95000000000002
20
16.525000000000002
42
-0.414213562373134
10
-164.44999999999999
20
16.024999999999999
0
LWPOLYLINE
5
140
100
AcDbEntity
8
0
100
AcDbPolyline
90
8
70
1
43
0.0
10
-228.74374999999998
20
50.650000000000006
42
-0.41421356237307422
10
-229.24375000000001
20
50.150000000000006
10
-242.24375000000003
20
50.15000000000002
42
-0.41421356237312101
10
-242.74375000000003
20
50.650000000000006
10
-242.74374999999998
20
63.650000000000006
42
-0.4142135623730222
10
-242.24375000000003
20
64.150000000000006
10
-229.24375000000001
20
64.150000000000006
42
-0.41421356237313667
10
-228.74375000000001
20
63.650000000000006
0
LWPOLYLINE
5
141
100
AcDbEntity
8
0
100
AcDbPolyline
90
8
70
1
43
0.0
10
-7.2874999999999979
20
74.462500000000006
42
-0.4142135623730977
10
-7.7875000000000005
20
73.962500000000006
10
-20.787500000000001
20
73.96250000000002
42
-0.4142135623730977
10
-21.287500000000001
20
74.462500000000006
10
-21.287500000000005
20
87.46250000000002
42
-0.41421356237307161
10
-20.787500000000001
20
87.96250000000002
10
-7.7875000000000005
20
87.96250000000002
42
-0.41421356237307422
10
-7.2874999999999996
20
87.46250000000002
0
LWPOLYLINE
5
142
100
AcDbEntity
8
0
100
AcDbPolyline
90
8
70
1
43
0.0
10
-93.012499999999989
20
50.650000000000006
42
-0.41421356237308982
10
-93.512500000000003
20
50.150000000000006
10
-106.51250000000002
20
50.149999999999999
42
-0.41421356237309509
10
-107.01250000000002
20
50.650000000000006
10
-107.01250000000002
20
63.650000000000006
42
-0.41421356237310542
10
-106.51250000000002
20
64.150000000000006
10
-93.512500000000003
20
64.15000000000002
42
-0.4142135623731002
10
-93.012499999999989
20
63.650000000000006
0
LWPOLYLINE
5
143
100
AcDbEntity
8
0
100
AcDbPolyline
90
8
70
1
43
0.0
10
-126.34999999999999
20
3.0249999999999999
42
-0.41421356237307422
10
-126.85000000000001
20
2.5249999999999999
10
-139.84999999999999
20
2.5249999999999941
42
-0.41421356237309437
10
-140.34999999999999
20
3.0249999999999999
10
-140.34999999999999
20
16.024999999999999
42
-0.41421356237310675
10
-139.84999999999999
20
16.525000000000002
10
-126.85000000000001
20
16.525000000000009
42
-0.41421356237307549
10
-126.34999999999999
20
16.024999999999999
0
LWPOLYLINE
5
144
100
AcDbEntity
8
0
100
AcDbPolyline
90
8
70
1
43
0.0
10
-207.3125
20
26.837499999999999
42
-0.41421356237304557
10
-207.8125
20
26.337499999999999
10
-220.8125
20
26.337499999999999
42
-0.41421356237313145
10
-221.3125
20
26.837499999999999
10
-221.3125
20
39.837500000000006
42
-0.414213562373134
10
-220.8125
20
40.337500000000006
10
-207.8125
20
40.337500000000013
42
-0.4142135623731002
10
-207.3125
20
39.837499999999999
0
LWPOLYLINE
5
145
100
AcDbEntity
8
0
100
AcDbPolyline
90
8
70
1
43
0.0
10
-112.0625
20
50.650000000000006
42
-0.41421356237308982
10
-112.56250000000001
20
50.150000000000006
10
-125.5625
20
50.149999999999999
42
-0.41421356237307422
10
-126.06250000000001
20
50.650000000000006
10
-126.0625
20
63.650000000000006
42
-0.41421356237310542
10
-125.5625
20
64.150000000000006
10
-112.56250000000001
20
64.15000000000002
42
-0.4142135623731002
10
-112.0625
20
63.650000000000006
0
LWPOLYLINE
5
146
100
AcDbEntity
8
0
100
AcDbPolyline
90
8
70
1
43
0.0
10
-102.53749999999999
20
7.7875000000000005
10
-102.53749999999999
20
20.787500000000001
42
0.41421356237309243
10
-103.03750000000001
20
21.287500000000009
10
-116.03749999999999
20
21.287500000000001
42
0.4142135623731002
10
-116.53750000000001
20
20.787500000000001
10
-116.53750000000001
20
7.7875000000000005
42
0.41421356237307289
10
-116.03749999999999
20
7.2874999999999996
10
-103.03750000000001
20
7.2874999999999996
42
0.41421356237310542
0
CIRCLE
5
147
100
AcDbEntity
8
0
100
AcDbCircle
10
-18.550000000000001
20
92.487499999999997
30
0
40
1.100000000000001
210
0
220
-0
230
1
0
LWPOLYLINE
5
148
100
AcDbEntity
8
0
100
AcDbPolyline
90
8
70
1
43
0.0
10
-228.74374999999998
20
3.0249999999999999
42
-0.41421356237307744
10
-229.24375000000001
20
2.5249999999999999
10
-242.24375000000003
20
2.5249999999999817
42
-0.41421356237310153
10
-242.74375000000003
20
3.0249999999999999
10
-242.74375000000003
20
16.024999999999999
42
-0.41421356237304691
10
-242.24375000000003
20
16.525000000000002
10
-229.24375000000001
20
16.525000000000002
42
-0.414213562373134
10
-228.74375000000001
20
16.024999999999999
0
LWPOLYLINE
5
149
100
AcDbEntity
8
0
100
AcDbPolyline
90
8
70
1
43
0.0
10
-221.60000000000002
20
74.462500000000006
42
-0.4142135623730222
10
-222.10000000000002
20
73.962500000000006
10
-235.10000000000002
20
73.962500000000006
42
-0.41421356237313667
10
-235.60000000000002
20
74.462500000000006
10
-235.60000000000002
20
87.46250000000002
42
-0.41421356237309509
10
-235.10000000000002
20
87.96250000000002
10
-222.10000000000002
20
87.962500000000006
42
-0.41421356237308465
10
-221.59999999999999
20
87.46250000000002
0
LWPOLYLINE
5
150
100
AcDbEntity
8
0
100
AcDbPolyline
90
8
70
1
43
0.0
10
-107.30000000000001
20
26.837499999999999
42
-0.41421356237310542
10
-107.80000000000001
20
26.337499999999999
10
-120.8
20
26.337499999999995
42
-0.41421356237307161
10
-121.30000000000001
20
26.837499999999999
10
-121.29999999999998
20
39.837500000000006
42
-0.41421356237307422
10
-120.8
20
40.337500000000006
10
-107.80000000000001
20
40.337500000000006
42
-0.41421356237309243
10
-107.30000000000001
20
39.837499999999999
0
LWPOLYLINE
5
151
100
AcDbEntity
8
0
100
AcDbPolyline
90
8
70
1
43
0.0
10
-64.437500000000014
20
26.837499999999999
42
-0.4142135623730977
10
-64.9375
20
26.337499999999999
10
-77.9375
20
26.337499999999999
42
-0.41421356237309509
10
-78.4375
20
26.837499999999999
10
-78.4375
20
39.837500000000006
42
-0.41421356237310281
10
-77.9375
20
40.337500000000006
10
-64.9375
20
40.337499999999991
42
-0.41421356237311585
10
-64.4375
20
39.837499999999999
0
LWPOLYLINE
5
152
100
AcDbEntity
8
0
100
AcDbPolyline
90
8
70
1
43
0.0
10
-126.35000000000002
20
26.837499999999999
42
-0.4142135623731002
10
-126.85000000000001
20
26.337499999999999
10
-139.84999999999999
20
26.337499999999995
42
-0.41421356237309243
10
-140.34999999999999
20
26.837499999999999
10
-140.34999999999999
20
39.837500000000006
42
-0.41421356237310542
10
-139.84999999999999
20
40.337500000000006
10
-126.85000000000001
20
40.33750000000002
42
-0.41421356237306117
10
-126.34999999999999
20
39.837499999999999
0
LWPOLYLINE
5
153
100
AcDbEntity
8
0
100
AcDbPolyline
90
32
70
1
43
0.0
10
-251.41249999999999
20
3.0531133177191805e-15
42
-0.41421356237308998
10
-252.41250000000002
20
0.99999999999999645
10
-252.41250000000002
20
89.487500000000011
42
-0.41421356237310542
10
-251.41249999999999
20
90.487499999999997
10
-235.86250000000001
20
90.487499999999997
10
-235.86250000000001
20
93.487499999999969
42
-0.41421356237309509
10
-234.86249999999998
20
94.487500000000011
10
-232.86250000000007
20
94.487500000000011
42
-0.41421356237309509
10
-231.86250000000001
20
93.487499999999955
10
-231.86250000000001
20
90.487499999999997
10
-20.549999999999997
20
90.487499999999997
10
-20.549999999999997
20
93.487500000000011
42
-0.41421356237309509
10
-19.550000000000001
20
94.487500000000011
10
-17.54999999999999
20
94.487500000000011
42
-0.41421356237309509
10
-16.550000000000004
20
93.487500000000011
10
-16.550000000000004
20
90.487499999999997
10
-0.99999999999999989
20
90.487499999999997
42
-0.41421356237309803
10
0
20
89.487500000000011
10
-2.7755575615628914e-16
20
1.0000000000000002
42
-0.41421356237309553
10
-1.0000000000000009
20
0
10
-16.550000000000004
20
0
10
-16.550000000000004
20
-3.0000000000000004
42
-0.41421356237309509
10
-17.550000000000004
20
-4.0000000000000018
10
-19.550000000000008
20
-3.9999999999999969
42
-0.41421356237309509
10
-20.550000000000001
20
-3.0000000000000027
10
-20.549999999999997
20
0
10
-231.86250000000001
20
0
10
-231.86250000000001
20
-2.9999999999999503
42
-0.41421356237309509
10
-232.86250000000007
20
-4
10
-234.86249999999998
20
-3.9999999999999982
42
-0.41421356237309509
10
-235.86250000000001
20
-2.999999999999984
10
-235.86250000000001
20
0
0
ENDSEC
0
SECTION
2
OBJECTS
0
DICTIONARY
5
C
100
AcDbDictionary
3
ACAD_GROUP
350
D
3
ACAD_MLINESTYLE
350
17
0
DICTIONARY
5
D
100
AcDbDictionary
0
DICTIONARY
5
1A
330
C
100
AcDbDictionary
0
DICTIONARY
5
17
100
AcDbDictionary
0
ENDSEC
0
EOF
